<?xml version="1.0" encoding="utf-8"?>
<!-- Generator: Adobe Illustrator 21.0.0, SVG Export Plug-In . SVG Version: 6.00 Build 0)  -->
<svg version="1.1" id="Layer_1" xmlns="http://www.w3.org/2000/svg" xmlns:xlink="http://www.w3.org/1999/xlink" x="0px" y="0px"
	 viewBox="0 0 512 512" style="enable-background:new 0 0 512 512;" xml:space="preserve">
<style type="text/css">
	.st0{fill:#BC3131;}
</style>
<g>
	<g>
		<g>
			<path class="st0" d="M257,500C127.4,500,22,397.8,22,272.2c0-87.8,50.6-166.3,132.1-204.9c10.2-4.8,22.4-0.5,27.2,9.7
				s0.5,22.4-9.7,27.2c-67.1,31.8-108.7,96.1-108.7,168c0,103.1,87.1,187,194.1,187s194.1-83.9,194.1-187
				c0-72.4-44-138.9-112.2-169.5c-10.3-4.6-14.9-16.7-10.3-27s16.7-14.9,27-10.2C438.5,102.6,492,183.8,492,272.2
				C492,397.8,386.6,500,257,500L257,500z"/>
			<path class="st0" d="M257,286.9c-11.3,0-20.4-9.1-20.4-20.4V30.4c0-11.3,9.2-20.4,20.4-20.4c11.3,0,20.4,9.1,20.4,20.4v236.1
				C277.4,277.8,268.3,286.9,257,286.9z"/>
		</g>
	</g>
</g>
</svg>
